<svg width="26" height="26" viewBox="0 0 26 26" fill="none" xmlns="http://www.w3.org/2000/svg">
<path d="M22.8258 5.66567C21.0816 5.49234 19.3375 5.36234 17.5825 5.26484V5.254L17.3441 3.84567C17.1816 2.849 16.9433 1.354 14.4083 1.354H11.57C9.0458 1.354 8.80747 2.784 8.63413 3.83484L8.40663 5.2215C7.39913 5.2865 6.39163 5.3515 5.38413 5.449L3.17413 5.66567C2.71913 5.709 2.39413 6.10984 2.43747 6.554C2.4808 6.99817 2.8708 7.32317 3.3258 7.27984L5.5358 7.06317C11.2125 6.49984 16.9325 6.7165 22.6741 7.29067C22.7066 7.29067 22.7283 7.29067 22.7608 7.29067C23.1725 7.29067 23.53 6.9765 23.5733 6.554C23.6058 6.10984 23.2808 5.709 22.8258 5.66567Z" fill="#F46565"/>
<path d="M20.8324 8.8185C20.5724 8.54766 20.2149 8.396 19.8466 8.396H6.15322C5.78489 8.396 5.41656 8.54766 5.16739 8.8185C4.91822 9.08933 4.77739 9.45766 4.79906 9.83683L5.47072 20.9518C5.58989 22.5985 5.74156 24.6568 9.52239 24.6568H16.4774C20.2582 24.6568 20.4099 22.6093 20.5291 20.9518L21.2007 9.84766C21.2224 9.45766 21.0816 9.08933 20.8324 8.8185Z" fill="#E6D0D0"/>
<path fill-rule="evenodd" clip-rule="evenodd" d="M10.3784 18.4165C10.3784 17.9678 10.7422 17.604 11.1909 17.604H14.7984C15.2471 17.604 15.6109 17.9678 15.6109 18.4165C15.6109 18.8652 15.2471 19.229 14.7984 19.229H11.1909C10.7422 19.229 10.3784 18.8652 10.3784 18.4165Z" fill="#F46565"/>
<path fill-rule="evenodd" clip-rule="evenodd" d="M9.47925 14.0835C9.47925 13.6348 9.84302 13.271 10.2917 13.271H15.7084C16.1571 13.271 16.5209 13.6348 16.5209 14.0835C16.5209 14.5322 16.1571 14.896 15.7084 14.896H10.2917C9.84302 14.896 9.47925 14.5322 9.47925 14.0835Z" fill="#F46565"/>
</svg>
